<?xml version="1.0" encoding="UTF-8"?>
<svg xmlns="http://www.w3.org/2000/svg" viewBox="0 0 1600 900" preserveAspectRatio="xMidYMid slice" aria-hidden="true">
  <!-- Subtle entity-graph background: nodes (dots) connected by edges (lines)
       evoking Property → Title → Person → Organisation relationships.
       Strokes/fills use currentColor so the texture inherits the theme. -->
  <g stroke="currentColor" stroke-width="1" stroke-opacity="0.18" fill="none">
    <!-- Edges (drawn first so nodes overlay them) -->
    <line x1="120" y1="180" x2="320" y2="120"/>
    <line x1="120" y1="180" x2="280" y2="320"/>
    <line x1="320" y1="120" x2="540" y2="240"/>
    <line x1="280" y1="320" x2="540" y2="240"/>
    <line x1="280" y1="320" x2="460" y2="480"/>
    <line x1="540" y1="240" x2="780" y2="180"/>
    <line x1="540" y1="240" x2="700" y2="420"/>
    <line x1="460" y1="480" x2="700" y2="420"/>
    <line x1="460" y1="480" x2="380" y2="640"/>
    <line x1="780" y1="180" x2="980" y2="120"/>
    <line x1="780" y1="180" x2="900" y2="380"/>
    <line x1="700" y1="420" x2="900" y2="380"/>
    <line x1="700" y1="420" x2="820" y2="600"/>
    <line x1="380" y1="640" x2="600" y2="720"/>
    <line x1="820" y1="600" x2="600" y2="720"/>
    <line x1="980" y1="120" x2="1180" y2="240"/>
    <line x1="980" y1="120" x2="1240" y2="100"/>
    <line x1="900" y1="380" x2="1180" y2="240"/>
    <line x1="900" y1="380" x2="1120" y2="480"/>
    <line x1="820" y1="600" x2="1040" y2="660"/>
    <line x1="1120" y1="480" x2="1040" y2="660"/>
    <line x1="1120" y1="480" x2="1320" y2="380"/>
    <line x1="1180" y1="240" x2="1320" y2="380"/>
    <line x1="1240" y1="100" x2="1440" y2="220"/>
    <line x1="1320" y1="380" x2="1440" y2="220"/>
    <line x1="1320" y1="380" x2="1480" y2="500"/>
    <line x1="1040" y1="660" x2="1260" y2="720"/>
    <line x1="1480" y1="500" x2="1260" y2="720"/>
    <line x1="600" y1="720" x2="800" y2="800"/>
    <line x1="1260" y1="720" x2="800" y2="800"/>
  </g>
  <g fill="currentColor" fill-opacity="0.22">
    <!-- Nodes -->
    <circle cx="120"  cy="180" r="4"/>
    <circle cx="320"  cy="120" r="6"/>
    <circle cx="280"  cy="320" r="5"/>
    <circle cx="540"  cy="240" r="8"/>
    <circle cx="460"  cy="480" r="6"/>
    <circle cx="780"  cy="180" r="5"/>
    <circle cx="700"  cy="420" r="9"/>
    <circle cx="380"  cy="640" r="5"/>
    <circle cx="980"  cy="120" r="6"/>
    <circle cx="900"  cy="380" r="7"/>
    <circle cx="820"  cy="600" r="5"/>
    <circle cx="600"  cy="720" r="6"/>
    <circle cx="1180" cy="240" r="8"/>
    <circle cx="1240" cy="100" r="4"/>
    <circle cx="1120" cy="480" r="6"/>
    <circle cx="1040" cy="660" r="5"/>
    <circle cx="1320" cy="380" r="7"/>
    <circle cx="1440" cy="220" r="5"/>
    <circle cx="1480" cy="500" r="5"/>
    <circle cx="1260" cy="720" r="6"/>
    <circle cx="800"  cy="800" r="4"/>
  </g>
</svg>
